<?xml version="1.0" encoding="utf-8"?>
<!-- Generator: Adobe Illustrator 25.0.0, SVG Export Plug-In . SVG Version: 6.00 Build 0)  -->
<svg version="1.1" id="Layer_1" xmlns="http://www.w3.org/2000/svg" xmlns:xlink="http://www.w3.org/1999/xlink" x="0px" y="0px"
	 viewBox="0 0 1920 1080" style="enable-background:new 0 0 1920 1080;" xml:space="preserve">
<style type="text/css">
	.st0{clip-path:url(#SVGID_2_);fill:url(#SVGID_3_);}
	.st1{clip-path:url(#SVGID_5_);fill:url(#SVGID_6_);}
	.st2{fill:#F47F20;}
	.st3{fill:#2151A1;}
	.st4{font-family:'FONTSPRINGDEMO-AftikaBoldRegular';}
	.st5{font-size:121.9693px;}
	.st6{fill:#FFFFFF;}
	.st7{clip-path:url(#SVGID_8_);fill:url(#SVGID_9_);}
	.st8{clip-path:url(#SVGID_11_);fill:url(#SVGID_12_);}
	.st9{clip-path:url(#SVGID_14_);fill:url(#SVGID_15_);}
	.st10{clip-path:url(#SVGID_17_);fill:url(#SVGID_18_);}
</style>
<g>
	<g>
		<defs>
			<polygon id="SVGID_1_" points="474.78,349.48 474.78,1011.85 761.46,1011.85 761.46,869.43 617.23,869.43 617.23,422.48 
				960.87,223.06 1311.68,426.06 1311.68,872.98 1156.77,872.98 1156.77,1011.85 1445.19,1011.85 1445.22,1011.85 1445.22,354.8 
				1311.68,271.15 1311.68,105.53 1162.09,105.53 1162.09,183.88 962.68,68.15 			"/>
		</defs>
		<clipPath id="SVGID_2_">
			<use xlink:href="#SVGID_1_"  style="overflow:visible;"/>
		</clipPath>
		
			<linearGradient id="SVGID_3_" gradientUnits="userSpaceOnUse" x1="731.3013" y1="844.6271" x2="762.9998" y2="844.6271" gradientTransform="matrix(8.4699 31.4595 31.4595 -8.4699 -31935.2988 -15794.3096)">
			<stop  offset="0" style="stop-color:#293485"/>
			<stop  offset="1" style="stop-color:#7492CA"/>
			<stop  offset="1" style="stop-color:#7492CA"/>
		</linearGradient>
		<polygon class="st0" points="1379.64,-175.46 1682.12,948.07 540.36,1255.46 237.88,131.93 		"/>
	</g>
	<g>
		<defs>
			<polygon id="SVGID_4_" points="725.26,497.29 725.26,764.38 866.51,840.33 866.51,1011.85 1058.82,1011.85 1058.82,840.33 
				1197.72,757.94 1197.72,496.08 960.97,360.22 			"/>
		</defs>
		<clipPath id="SVGID_5_">
			<use xlink:href="#SVGID_4_"  style="overflow:visible;"/>
		</clipPath>
		
			<linearGradient id="SVGID_6_" gradientUnits="userSpaceOnUse" x1="731.3013" y1="843.4911" x2="762.9998" y2="843.4911" gradientTransform="matrix(8.4699 31.4595 31.4595 -8.4699 -31934.8359 -15794.4346)">
			<stop  offset="0" style="stop-color:#293485"/>
			<stop  offset="1" style="stop-color:#7492CA"/>
			<stop  offset="1" style="stop-color:#7492CA"/>
		</linearGradient>
		<polygon class="st1" points="1165.79,241.62 1361.3,967.81 757.19,1130.45 561.68,404.26 		"/>
	</g>
	<polygon class="st2" points="895.06,426.27 743.2,519.46 743.2,745.22 959.54,865.77 1179.65,739.32 1179.37,518.51 
		1020.24,426.27 1022.14,623.94 957.19,661.31 894.11,625.59 	"/>
	<text transform="matrix(1 0 0 1.129 774.0972 699.1553)" class="st3 st4 st5">P</text>
	<text transform="matrix(1 0 0 1.129 1060.0977 699.1553)" class="st3 st4 st5">S</text>
	<text transform="matrix(1 0 0 1.129 915.5591 573.5576)" class="st6 st4 st5">S</text>
	<g>
		<defs>
			<polygon id="SVGID_7_" points="891.61,649.15 891.61,715.75 950.85,715.75 950.89,715.75 950.89,682.31 891.64,649.15 			"/>
		</defs>
		<clipPath id="SVGID_8_">
			<use xlink:href="#SVGID_7_"  style="overflow:visible;"/>
		</clipPath>
		
			<linearGradient id="SVGID_9_" gradientUnits="userSpaceOnUse" x1="734.9303" y1="849.9117" x2="766.6287" y2="849.9117" gradientTransform="matrix(1.815 11.1923 11.1923 -1.815 -9943.5752 -6114.3779)">
			<stop  offset="0" style="stop-color:#293485"/>
			<stop  offset="1" style="stop-color:#7492CA"/>
			<stop  offset="1" style="stop-color:#7492CA"/>
		</linearGradient>
		<polygon class="st7" points="949.37,639.79 961.41,714.05 893.13,725.12 881.09,650.86 		"/>
	</g>
	<g>
		<defs>
			<polygon id="SVGID_10_" points="960.02,682.31 960.02,715.63 960.02,715.75 1019.29,715.75 1019.32,715.75 1019.32,649.15 			"/>
		</defs>
		<clipPath id="SVGID_11_">
			<use xlink:href="#SVGID_10_"  style="overflow:visible;"/>
		</clipPath>
		
			<linearGradient id="SVGID_12_" gradientUnits="userSpaceOnUse" x1="734.9302" y1="855.673" x2="766.6287" y2="855.673" gradientTransform="matrix(1.815 11.1923 11.1923 -1.815 -9941.3896 -6114.7324)">
			<stop  offset="0" style="stop-color:#293485"/>
			<stop  offset="1" style="stop-color:#7492CA"/>
			<stop  offset="1" style="stop-color:#7492CA"/>
		</linearGradient>
		<polygon class="st8" points="1017.8,639.78 1029.85,714.05 961.54,725.12 949.49,650.86 		"/>
	</g>
	<g>
		<defs>
			<polygon id="SVGID_13_" points="891.64,726.09 891.61,726.09 891.61,792.72 950.85,792.72 950.89,792.72 950.89,726.09 			"/>
		</defs>
		<clipPath id="SVGID_14_">
			<use xlink:href="#SVGID_13_"  style="overflow:visible;"/>
		</clipPath>
		
			<linearGradient id="SVGID_15_" gradientUnits="userSpaceOnUse" x1="734.9302" y1="848.8522" x2="766.6287" y2="848.8522" gradientTransform="matrix(1.815 11.1923 11.1923 -1.815 -9943.876 -6114.3291)">
			<stop  offset="0" style="stop-color:#293485"/>
			<stop  offset="1" style="stop-color:#7492CA"/>
			<stop  offset="1" style="stop-color:#7492CA"/>
		</linearGradient>
		<polygon class="st9" points="949.37,716.72 961.41,791.01 893.13,802.08 881.08,727.79 		"/>
	</g>
	<g>
		<defs>
			<polygon id="SVGID_16_" points="960.05,726.09 960.02,726.09 960.02,792.59 960.02,792.72 1019.29,792.72 1019.32,792.72 
				1019.32,726.09 			"/>
		</defs>
		<clipPath id="SVGID_17_">
			<use xlink:href="#SVGID_16_"  style="overflow:visible;"/>
		</clipPath>
		
			<linearGradient id="SVGID_18_" gradientUnits="userSpaceOnUse" x1="734.9303" y1="854.621" x2="766.6287" y2="854.621" gradientTransform="matrix(1.815 11.1923 11.1923 -1.815 -9941.7734 -6114.6699)">
			<stop  offset="0" style="stop-color:#293485"/>
			<stop  offset="1" style="stop-color:#7492CA"/>
			<stop  offset="1" style="stop-color:#7492CA"/>
		</linearGradient>
		<polygon class="st10" points="1017.8,716.71 1029.85,791.01 961.54,802.09 949.49,727.79 		"/>
	</g>
</g>
</svg>
