<?xml version="1.0" encoding="utf-8"?>
<!-- Generator: Adobe Illustrator 25.0.0, SVG Export Plug-In . SVG Version: 6.00 Build 0)  -->
<svg version="1.1" id="Layer_1" xmlns="http://www.w3.org/2000/svg" xmlns:xlink="http://www.w3.org/1999/xlink" x="0px" y="0px"
	 viewBox="0 0 1920 1080" style="enable-background:new 0 0 1920 1080;" xml:space="preserve">
<style type="text/css">
	.st0{clip-path:url(#SVGID_2_);fill:url(#SVGID_3_);}
	.st1{clip-path:url(#SVGID_5_);fill:url(#SVGID_6_);}
	.st2{clip-path:url(#SVGID_8_);fill:url(#SVGID_9_);}
	.st3{clip-path:url(#SVGID_11_);fill:url(#SVGID_12_);}
	.st4{clip-path:url(#SVGID_14_);fill:url(#SVGID_15_);}
	.st5{clip-path:url(#SVGID_17_);fill:url(#SVGID_18_);}
	.st6{clip-path:url(#SVGID_20_);fill:url(#SVGID_21_);}
	.st7{fill:#2151A1;}
	.st8{font-family:'FONTSPRINGDEMO-AftikaLightRegular';}
	.st9{font-size:118.4456px;}
	.st10{fill:#F47F20;}
	.st11{font-family:'FONTSPRINGDEMO-AftikaBoldRegular';}
	.st12{font-size:57.3031px;}
	.st13{fill:#FFFFFF;}
	.st14{clip-path:url(#SVGID_23_);fill:url(#SVGID_24_);}
	.st15{clip-path:url(#SVGID_26_);fill:url(#SVGID_27_);}
	.st16{clip-path:url(#SVGID_29_);fill:url(#SVGID_30_);}
	.st17{clip-path:url(#SVGID_32_);fill:url(#SVGID_33_);}
</style>
<g>
	<g>
		<defs>
			<polygon id="SVGID_1_" points="225.16,447.2 225.16,758.39 359.84,758.39 359.84,691.48 292.08,691.48 292.08,481.5 
				453.53,387.81 618.35,483.18 618.35,693.15 545.57,693.15 545.57,758.39 681.07,758.39 681.09,758.39 681.09,449.7 618.35,410.4 
				618.35,332.59 548.07,332.59 548.07,369.4 454.38,315.03 			"/>
		</defs>
		<clipPath id="SVGID_2_">
			<use xlink:href="#SVGID_1_"  style="overflow:visible;"/>
		</clipPath>
		
			<linearGradient id="SVGID_3_" gradientUnits="userSpaceOnUse" x1="735.2791" y1="829.6302" x2="750.1715" y2="829.6302" gradientTransform="matrix(8.4699 31.4595 31.4595 -8.4699 -31935.2988 -15794.3096)">
			<stop  offset="0" style="stop-color:#293485"/>
			<stop  offset="1" style="stop-color:#7492CA"/>
			<stop  offset="1" style="stop-color:#7492CA"/>
		</linearGradient>
		<polygon class="st0" points="650.27,200.58 792.39,728.43 255.97,872.85 113.86,345 		"/>
	</g>
	<g>
		<defs>
			<polygon id="SVGID_4_" points="342.84,516.65 342.84,642.13 409.2,677.81 409.2,758.39 499.55,758.39 499.55,677.81 
				564.81,639.11 564.81,516.08 453.58,452.25 			"/>
		</defs>
		<clipPath id="SVGID_5_">
			<use xlink:href="#SVGID_4_"  style="overflow:visible;"/>
		</clipPath>
		
			<linearGradient id="SVGID_6_" gradientUnits="userSpaceOnUse" x1="735.2791" y1="829.0887" x2="750.1715" y2="829.0887" gradientTransform="matrix(8.4699 31.4595 31.4595 -8.4699 -31934.8359 -15794.4346)">
			<stop  offset="0" style="stop-color:#293485"/>
			<stop  offset="1" style="stop-color:#7492CA"/>
			<stop  offset="1" style="stop-color:#7492CA"/>
		</linearGradient>
		<polygon class="st1" points="549.8,396.53 641.66,737.7 357.84,814.12 265.98,472.94 		"/>
	</g>
	<g>
		<defs>
			<path id="SVGID_7_" d="M809.53,411.51h30.25c23.2,0,34.8,13.14,34.8,30.54c0,17.1-11.6,29-34.8,29h-30.25V411.51z M750.61,361.12
				v223.52h58.93v-62.91H841c57.1,0,93.12-31.75,93.12-79.69c0-47.33-37.25-80.93-92.82-80.93H750.61z"/>
		</defs>
		<clipPath id="SVGID_8_">
			<use xlink:href="#SVGID_7_"  style="overflow:visible;"/>
		</clipPath>
		
			<linearGradient id="SVGID_9_" gradientUnits="userSpaceOnUse" x1="736.5989" y1="837.6389" x2="751.4913" y2="837.6389" gradientTransform="matrix(-2.1175 26.7708 26.7708 2.1175 -20012.8848 -21137.9395)">
			<stop  offset="0" style="stop-color:#293485"/>
			<stop  offset="1" style="stop-color:#7492CA"/>
			<stop  offset="1" style="stop-color:#7492CA"/>
		</linearGradient>
		<polygon class="st2" points="951.69,362.51 932.98,599.07 733.04,583.25 751.75,346.7 		"/>
	</g>
	<g>
		<defs>
			<path id="SVGID_10_" d="M1017.79,442.66v-31.15h-56.8v173.14h56.8v-64.74c0-40,25.64-50.68,55.56-50.68h6.11v-59.55
				C1045.88,409.67,1028.47,427.69,1017.79,442.66"/>
		</defs>
		<clipPath id="SVGID_11_">
			<use xlink:href="#SVGID_10_"  style="overflow:visible;"/>
		</clipPath>
		
			<linearGradient id="SVGID_12_" gradientUnits="userSpaceOnUse" x1="736.5989" y1="843.8621" x2="751.4913" y2="843.8621" gradientTransform="matrix(-2.1175 26.7708 26.7708 2.1175 -20000.8223 -21136.9844)">
			<stop  offset="0" style="stop-color:#293485"/>
			<stop  offset="1" style="stop-color:#7492CA"/>
			<stop  offset="1" style="stop-color:#7492CA"/>
		</linearGradient>
		<polygon class="st3" points="1093.21,410.76 1078.72,593.96 947.24,583.56 961.73,400.36 		"/>
	</g>
	<g>
		<defs>
			<path id="SVGID_13_" d="M1105.11,584.64h56.8V411.53h-56.8V584.64z M1101.75,366.93c0,16.49,14.36,29.92,32.06,29.92
				c17.1,0,30.84-13.43,30.84-29.92c0-16.5-14.04-29.62-30.84-29.62C1116.41,337.31,1101.75,351.04,1101.75,366.93"/>
		</defs>
		<clipPath id="SVGID_14_">
			<use xlink:href="#SVGID_13_"  style="overflow:visible;"/>
		</clipPath>
		
			<linearGradient id="SVGID_15_" gradientUnits="userSpaceOnUse" x1="736.5989" y1="847.6649" x2="751.4913" y2="847.6649" gradientTransform="matrix(-2.1175 26.7708 26.7708 2.1175 -19993.1895 -21136.3809)">
			<stop  offset="0" style="stop-color:#293485"/>
			<stop  offset="1" style="stop-color:#7492CA"/>
			<stop  offset="1" style="stop-color:#7492CA"/>
		</linearGradient>
		<polygon class="st4" points="1184.1,338.85 1164.27,589.59 1082.31,583.11 1102.15,332.37 		"/>
	</g>
	<g>
		<defs>
			<path id="SVGID_16_" d="M1362.82,439.61c-10.68-20.16-29.62-31.15-52.51-31.15c-23.22,0-40.91,12.21-53.75,25.35v-22.29h-56.79
				v173.14h56.79v-93.12c0-17.42,13.14-32.38,29.93-32.38c16.8,0,28.7,11.9,28.7,30.53v94.97h57.1V490.9
				c0-19.23,13.45-31.75,29.01-31.75c17.41,0,29.32,11.9,29.32,30.23v95.27h57.1v-102.3c0-46.72-25.66-73.9-62.31-73.9
				C1396.42,408.45,1376.25,424.94,1362.82,439.61"/>
		</defs>
		<clipPath id="SVGID_17_">
			<use xlink:href="#SVGID_16_"  style="overflow:visible;"/>
		</clipPath>
		
			<linearGradient id="SVGID_18_" gradientUnits="userSpaceOnUse" x1="736.5989" y1="855.0523" x2="751.4913" y2="855.0523" gradientTransform="matrix(-2.1175 26.7708 26.7708 2.1175 -19978.9297 -21135.252)">
			<stop  offset="0" style="stop-color:#293485"/>
			<stop  offset="1" style="stop-color:#7492CA"/>
			<stop  offset="1" style="stop-color:#7492CA"/>
		</linearGradient>
		<polygon class="st5" points="1501.57,409.55 1485.93,607.28 1185.93,583.55 1201.57,385.82 		"/>
	</g>
	<g>
		<defs>
			<path id="SVGID_19_" d="M1604.34,454.56c21.39,0,31.16,14.36,32.38,29.93h-65.65C1571.98,468.92,1583.9,454.56,1604.34,454.56
				 M1513.66,498.22c0,53.14,36.65,89.79,98.93,89.79c50.99,0,74.19-32.38,74.19-32.38l-30.53-27.18c0,0-14.95,14.04-39.08,14.04
				c-25.97,0-41.24-11.9-45.51-25.64h122.15c0.61-4.57,0.91-8.86,0.91-14.36c0-59.84-36.64-94.36-90.07-94.36
				C1560.68,408.14,1513.66,438.68,1513.66,498.22"/>
		</defs>
		<clipPath id="SVGID_20_">
			<use xlink:href="#SVGID_19_"  style="overflow:visible;"/>
		</clipPath>
		
			<linearGradient id="SVGID_21_" gradientUnits="userSpaceOnUse" x1="736.5989" y1="864.0753" x2="751.4913" y2="864.0753" gradientTransform="matrix(-2.1175 26.7708 26.7708 2.1175 -19961.5352 -21133.877)">
			<stop  offset="0" style="stop-color:#293485"/>
			<stop  offset="1" style="stop-color:#7492CA"/>
			<stop  offset="1" style="stop-color:#7492CA"/>
		</linearGradient>
		<polygon class="st6" points="1708.87,409.26 1693.6,602.24 1499.53,586.89 1514.79,393.91 		"/>
	</g>
	<text transform="matrix(1 0 0 1.129 750.6172 734.479)"><tspan x="0" y="0" class="st7 st8 st9">Shield Servi</tspan><tspan x="731.15" y="0" class="st7 st8 st9">c</tspan><tspan x="803.4" y="0" class="st7 st8 st9">es</tspan></text>
	<polygon class="st10" points="422.61,483.28 351.26,527.06 351.26,633.13 452.9,689.76 556.32,630.36 556.18,526.62 481.42,483.28 
		482.32,576.15 451.8,593.71 422.17,576.92 	"/>
	<text transform="matrix(1 0 0 1.129 365.7813 611.4868)" class="st7 st11 st12">P</text>
	<text transform="matrix(1 0 0 1.129 500.1485 611.4868)" class="st7 st11 st12">S</text>
	<text transform="matrix(1 0 0 1.129 432.2422 552.479)" class="st13 st11 st12">S</text>
	<g>
		<defs>
			<polygon id="SVGID_22_" points="420.99,588 420.99,619.28 448.82,619.28 448.84,619.28 448.84,603.57 421.01,588 			"/>
		</defs>
		<clipPath id="SVGID_23_">
			<use xlink:href="#SVGID_22_"  style="overflow:visible;"/>
		</clipPath>
		
			<linearGradient id="SVGID_24_" gradientUnits="userSpaceOnUse" x1="726.5948" y1="808.6853" x2="741.4872" y2="808.6853" gradientTransform="matrix(1.815 11.1923 11.1923 -1.815 -9943.5752 -6114.3779)">
			<stop  offset="0" style="stop-color:#293485"/>
			<stop  offset="1" style="stop-color:#7492CA"/>
			<stop  offset="1" style="stop-color:#7492CA"/>
		</linearGradient>
		<polygon class="st14" points="448.13,583.6 453.78,618.48 421.7,623.68 416.05,588.8 		"/>
	</g>
	<g>
		<defs>
			<polygon id="SVGID_25_" points="453.13,603.57 453.13,619.22 453.13,619.28 480.98,619.28 480.99,619.28 480.99,588 			"/>
		</defs>
		<clipPath id="SVGID_26_">
			<use xlink:href="#SVGID_25_"  style="overflow:visible;"/>
		</clipPath>
		
			<linearGradient id="SVGID_27_" gradientUnits="userSpaceOnUse" x1="726.5948" y1="811.2886" x2="741.4872" y2="811.2886" gradientTransform="matrix(1.815 11.1923 11.1923 -1.815 -9941.3896 -6114.7324)">
			<stop  offset="0" style="stop-color:#293485"/>
			<stop  offset="1" style="stop-color:#7492CA"/>
			<stop  offset="1" style="stop-color:#7492CA"/>
		</linearGradient>
		<polygon class="st15" points="480.28,583.59 485.94,618.48 453.84,623.69 448.18,588.8 		"/>
	</g>
	<g>
		<defs>
			<polygon id="SVGID_28_" points="421.01,624.14 420.99,624.14 420.99,655.44 448.82,655.44 448.84,655.44 448.84,624.14 			"/>
		</defs>
		<clipPath id="SVGID_29_">
			<use xlink:href="#SVGID_28_"  style="overflow:visible;"/>
		</clipPath>
		
			<linearGradient id="SVGID_30_" gradientUnits="userSpaceOnUse" x1="726.5948" y1="808.2018" x2="741.4872" y2="808.2018" gradientTransform="matrix(1.815 11.1923 11.1923 -1.815 -9943.876 -6114.3291)">
			<stop  offset="0" style="stop-color:#293485"/>
			<stop  offset="1" style="stop-color:#7492CA"/>
			<stop  offset="1" style="stop-color:#7492CA"/>
		</linearGradient>
		<polygon class="st16" points="448.13,619.74 453.79,654.64 421.7,659.84 416.04,624.94 		"/>
	</g>
	<g>
		<defs>
			<polygon id="SVGID_31_" points="453.14,624.14 453.13,624.14 453.13,655.38 453.13,655.44 480.98,655.44 480.99,655.44 
				480.99,624.14 			"/>
		</defs>
		<clipPath id="SVGID_32_">
			<use xlink:href="#SVGID_31_"  style="overflow:visible;"/>
		</clipPath>
		
			<linearGradient id="SVGID_33_" gradientUnits="userSpaceOnUse" x1="726.5948" y1="810.8124" x2="741.4872" y2="810.8124" gradientTransform="matrix(1.815 11.1923 11.1923 -1.815 -9941.7734 -6114.6699)">
			<stop  offset="0" style="stop-color:#293485"/>
			<stop  offset="1" style="stop-color:#7492CA"/>
			<stop  offset="1" style="stop-color:#7492CA"/>
		</linearGradient>
		<polygon class="st17" points="480.28,619.74 485.94,654.64 453.84,659.85 448.18,624.94 		"/>
	</g>
</g>
</svg>
